<?xml version="1.0" ?><svg fill="grey" display="block" version="1.1" viewBox="0 0 32 32" xml:space="preserve" xmlns="http://www.w3.org/2000/svg" xmlns:xlink="http://www.w3.org/1999/xlink"><style type="text/css">
</style><g class="st0" id="grid"/><g id="Layer_2"><g><path d="M27.13,27H4.87C3.29,27,2,25.71,2,24.13V20h2v4.13C4,24.61,4.39,25,4.87,25h22.25c0.48,0,0.87-0.39,0.87-0.87V7.87    C28,7.39,27.61,7,27.13,7H4.87C4.39,7,4,7.39,4,7.87V18H2V7.87C2,6.29,3.29,5,4.87,5h22.25C28.71,5,30,6.29,30,7.87v16.25    C30,25.71,28.71,27,27.13,27z"/></g><g><path d="M11.16,24c-0.21,0-0.41-0.05-0.59-0.16c-0.35-0.21-0.57-0.59-0.57-1V9.16c0-0.41,0.22-0.8,0.58-1    c0.36-0.21,0.8-0.21,1.16,0l12.31,6.99c0.37,0.21,0.59,0.6,0.59,1.02c0,0.42-0.24,0.81-0.61,1.01l-12.31,6.69    C11.54,23.96,11.35,24,11.16,24z M12,10.6v10.83l9.75-5.29L12,10.6z M23.06,16.88C23.06,16.88,23.06,16.88,23.06,16.88    L23.06,16.88z M10.75,9.89C10.75,9.89,10.75,9.89,10.75,9.89L10.75,9.89z"/></g></g></svg>